<svg width="120" height="40" viewBox="0 0 120 40" fill="none" xmlns="http://www.w3.org/2000/svg">
  <path d="M20 0C8.954 0 0 8.954 0 20C0 31.046 8.954 40 20 40C31.046 40 40 31.046 40 20C40 8.954 31.046 0 20 0ZM20 36C11.163 36 4 28.837 4 20C4 11.163 11.163 4 20 4C28.837 4 36 11.163 36 20C36 28.837 28.837 36 20 36Z" fill="#2D488F"/>
  <path d="M20 8C14.477 8 10 12.477 10 18C10 23.523 14.477 28 20 28C25.523 28 30 23.523 30 18C30 12.477 25.523 8 20 8ZM20 24C16.686 24 14 21.314 14 18C14 14.686 16.686 12 20 12C23.314 12 26 14.686 26 18C26 21.314 23.314 24 20 24Z" fill="#2D488F"/>
  <path d="M50 10H60C65.523 10 70 14.477 70 20C70 25.523 65.523 30 60 30H50V10ZM60 26C63.314 26 66 23.314 66 20C66 16.686 63.314 14 60 14H54V26H60Z" fill="#2D488F"/>
  <path d="M75 10H85C90.523 10 95 14.477 95 20C95 25.523 90.523 30 85 30H75V10ZM85 26C88.314 26 91 23.314 91 20C91 16.686 88.314 14 85 14H79V26H85Z" fill="#2D488F"/>
  <path d="M100 10H110C115.523 10 120 14.477 120 20C120 25.523 115.523 30 110 30H100V10ZM110 26C113.314 26 116 23.314 116 20C116 16.686 113.314 14 110 14H104V26H110Z" fill="#2D488F"/>
</svg>